<svg width="176" height="32" viewBox="0 0 4994 948" fill="none" xmlns="http://www.w3.org/2000/svg">
<path d="M6.19888e-06 740V9.99998H130L346 497H362L577 9.99998H708V740H610V117L617 119L410 589H290L82 119L90 117V740H6.19888e-06ZM1132.92 758C1086.26 758 1045.92 750 1011.92 734C977.922 718 950.255 697 928.922 671C907.589 644.333 891.589 614.667 880.922 582C870.922 549.333 865.922 516 865.922 482V464C865.922 429.333 870.922 395.667 880.922 363C891.589 330.333 907.589 301 928.922 275C950.255 248.333 977.255 227.333 1009.92 212C1043.26 196 1082.26 188 1126.92 188C1184.92 188 1232.59 200.667 1269.92 226C1307.92 250.667 1335.92 282.667 1353.92 322C1372.59 361.333 1381.92 403.333 1381.92 448V491H907.922V419H1311.92L1289.92 458C1289.92 420 1283.92 387.333 1271.92 360C1259.92 332 1241.92 310.333 1217.92 295C1193.92 279.667 1163.59 272 1126.92 272C1088.92 272 1057.26 280.667 1031.92 298C1007.26 315.333 988.589 339 975.922 369C963.922 399 957.922 433.667 957.922 473C957.922 511 963.922 545.333 975.922 576C988.589 606 1007.92 630 1033.92 648C1059.92 665.333 1092.92 674 1132.92 674C1174.92 674 1208.92 664.667 1234.92 646C1261.59 627.333 1277.59 605.667 1282.92 581H1372.92C1365.59 617.667 1350.92 649.333 1328.92 676C1306.92 702.667 1279.26 723 1245.92 737C1212.59 751 1174.92 758 1132.92 758ZM1726.23 746C1686.23 746 1651.56 740.333 1622.23 729C1593.56 717.667 1571.23 698.333 1555.23 671C1539.89 643 1532.23 605.333 1532.23 558V44H1624.23V570C1624.23 598.667 1631.89 621 1647.23 637C1663.23 652.333 1685.56 660 1714.23 660H1808.23V746H1726.23ZM1440.23 278V206H1808.23V278H1440.23ZM2265.05 740V580H2249.05V395C2249.05 358.333 2239.39 330.667 2220.05 312C2201.39 293.333 2173.72 284 2137.05 284C2116.39 284 2095.05 284.333 2073.05 285C2051.05 285.667 2030.05 286.333 2010.05 287C1990.05 287.667 1972.72 288.667 1958.05 290V206C1972.72 204.667 1988.05 203.667 2004.05 203C2020.72 201.667 2037.72 201 2055.05 201C2072.39 200.333 2089.05 200 2105.05 200C2159.72 200 2204.39 206.667 2239.05 220C2273.72 232.667 2299.39 253.667 2316.05 283C2332.72 312.333 2341.05 352 2341.05 402V740H2265.05ZM2090.05 754C2050.05 754 2015.39 747.333 1986.05 734C1957.39 720 1935.05 700 1919.05 674C1903.72 648 1896.05 616.667 1896.05 580C1896.05 542 1904.39 510.333 1921.05 485C1938.39 459.667 1963.39 440.667 1996.05 428C2028.72 414.667 2068.05 408 2114.05 408H2259.05V480H2110.05C2071.39 480 2041.72 489.333 2021.05 508C2000.39 526.667 1990.05 550.667 1990.05 580C1990.05 609.333 2000.39 633 2021.05 651C2041.72 669 2071.39 678 2110.05 678C2132.72 678 2154.39 674 2175.05 666C2195.72 657.333 2212.72 643.333 2226.05 624C2240.05 604 2247.72 576.667 2249.05 542L2275.05 580C2271.72 618 2262.39 650 2247.05 676C2232.39 701.333 2211.72 720.667 2185.05 734C2159.05 747.333 2127.39 754 2090.05 754ZM2926.25 940V581L2964.25 505C2962.25 563 2950.58 610.667 2929.25 648C2907.92 685.333 2880.25 713 2846.25 731C2812.92 749 2776.25 758 2736.25 758C2698.25 758 2663.25 750.667 2631.25 736C2599.92 721.333 2572.58 701 2549.25 675C2526.58 649 2508.92 619.333 2496.25 586C2483.58 552 2477.25 516 2477.25 478V460C2477.25 422 2483.58 386.667 2496.25 354C2508.92 321.333 2526.92 292.667 2550.25 268C2573.58 242.667 2601.25 223 2633.25 209C2665.25 195 2700.92 188 2740.25 188C2785.58 188 2825.25 197.667 2859.25 217C2893.92 236.333 2921.25 264.333 2941.25 301C2961.25 337.667 2972.25 382.333 2974.25 435H2946.25V206H3022.25V940H2926.25ZM2753.25 670C2785.92 670 2815.58 662.667 2842.25 648C2868.92 633.333 2890.25 612.333 2906.25 585C2922.25 557 2930.25 524.333 2930.25 487V441C2930.25 404.333 2921.92 373.333 2905.25 348C2889.25 322 2867.58 302.333 2840.25 289C2813.58 275 2784.58 268 2753.25 268C2717.25 268 2685.58 276.333 2658.25 293C2631.58 309.667 2610.58 333.333 2595.25 364C2580.58 394 2573.25 429 2573.25 469C2573.25 509 2580.92 544.333 2596.25 575C2611.58 605 2632.92 628.333 2660.25 645C2687.58 661.667 2718.58 670 2753.25 670ZM3391.7 756C3328.37 756 3279.7 735.333 3245.7 694C3211.7 652.667 3194.7 593 3194.7 515V205H3290.7V534C3290.7 576 3302.04 609 3324.7 633C3347.37 656.333 3378.04 668 3416.7 668C3456.7 668 3489.37 655.333 3514.7 630C3540.04 604 3552.7 568.667 3552.7 524V205H3648.7V740H3572.7V511H3584.7C3584.7 563.667 3577.7 608.333 3563.7 645C3549.7 681 3528.7 708.667 3500.7 728C3473.37 746.667 3438.37 756 3395.7 756H3391.7ZM3860.63 740V206H3956.63V740H3860.63ZM3778.63 282V206H3956.63V282H3778.63ZM3887.63 120C3866.3 120 3850.3 114.333 3839.63 103C3829.63 91.6666 3824.63 77.3333 3824.63 60C3824.63 42.6666 3829.63 28.3333 3839.63 17C3850.3 5.66664 3866.3 -9.53674e-06 3887.63 -9.53674e-06C3908.97 -9.53674e-06 3924.63 5.66664 3934.63 17C3945.3 28.3333 3950.63 42.6666 3950.63 60C3950.63 77.3333 3945.3 91.6666 3934.63 103C3924.63 114.333 3908.97 120 3887.63 120ZM4350.25 746C4310.25 746 4275.58 740.333 4246.25 729C4217.58 717.667 4195.25 698.333 4179.25 671C4163.92 643 4156.25 605.333 4156.25 558V44H4248.25V570C4248.25 598.667 4255.92 621 4271.25 637C4287.25 652.333 4309.58 660 4338.25 660H4432.25V746H4350.25ZM4064.25 278V206H4432.25V278H4064.25ZM4532.03 948V862H4609.03C4631.7 862 4650.7 859 4666.03 853C4682.03 847.667 4695.03 838.333 4705.03 825C4715.7 811.667 4724.36 794 4731.03 772L4899.03 206H4993.03L4815.03 797C4804.36 832.333 4789.36 861 4770.03 883C4750.7 905.667 4727.03 922 4699.03 932C4671.7 942.667 4639.7 948 4603.03 948H4532.03ZM4695.03 728V648H4811.03V728H4695.03ZM4685.03 728L4494.03 206H4592.03L4775.03 728H4685.03Z" fill="white"/>
</svg>
